<svg width="82" height="81" viewBox="0 0 82 81" fill="none" xmlns="http://www.w3.org/2000/svg">
<g clip-path="url(#clip0)">
<path d="M13.1984 59.8695C12.2259 59.8695 11.4375 59.0811 11.4375 58.1086V22.8913C11.4375 21.9188 12.2259 21.1304 13.1984 21.1304C14.1709 21.1304 14.9593 21.9188 14.9593 22.8913V58.1086C14.9592 59.0811 14.1709 59.8695 13.1984 59.8695Z" fill="#455A64"/>
<path d="M20.2419 52.826C19.2694 52.826 18.481 52.0376 18.481 51.0651V22.8913C18.481 21.9188 19.2694 21.1304 20.2419 21.1304C21.2144 21.1304 22.0028 21.9188 22.0028 22.8913V51.0652C22.0028 52.0376 21.2144 52.826 20.2419 52.826Z" fill="#455A64"/>
<path d="M27.2853 52.826C26.3128 52.826 25.5244 52.0376 25.5244 51.0651V22.8913C25.5244 21.9188 26.3128 21.1304 27.2853 21.1304C28.2578 21.1304 29.0463 21.9188 29.0463 22.8913V51.0652C29.0463 52.0376 28.2578 52.826 27.2853 52.826Z" fill="#455A64"/>
<path d="M34.3288 52.826C33.3563 52.826 32.5679 52.0376 32.5679 51.0651V22.8913C32.5679 21.9188 33.3563 21.1304 34.3288 21.1304C35.3013 21.1304 36.0897 21.9188 36.0897 22.8913V51.0652C36.0896 52.0376 35.3013 52.826 34.3288 52.826Z" fill="#455A64"/>
<path d="M41.3722 59.8695C40.3998 59.8695 39.6113 59.0811 39.6113 58.1086V22.8913C39.6113 21.9188 40.3998 21.1304 41.3722 21.1304C42.3447 21.1304 43.1332 21.9188 43.1332 22.8913V58.1086C43.1332 59.0811 42.3447 59.8695 41.3722 59.8695Z" fill="#455A64"/>
<path d="M48.4157 52.826C47.4432 52.826 46.6548 52.0376 46.6548 51.0651V22.8913C46.6548 21.9188 47.4432 21.1304 48.4157 21.1304C49.3882 21.1304 50.1766 21.9188 50.1766 22.8913V51.0652C50.1766 52.0376 49.3882 52.826 48.4157 52.826Z" fill="#455A64"/>
<path d="M55.4592 52.826C54.4867 52.826 53.6982 52.0376 53.6982 51.0651V22.8913C53.6982 21.9188 54.4867 21.1304 55.4592 21.1304C56.4317 21.1304 57.2201 21.9188 57.2201 22.8913V51.0652C57.2199 52.0376 56.4317 52.826 55.4592 52.826Z" fill="#455A64"/>
<path d="M62.5026 52.826C61.5301 52.826 60.7417 52.0376 60.7417 51.0651V22.8913C60.7417 21.9188 61.5301 21.1304 62.5026 21.1304C63.4751 21.1304 64.2635 21.9188 64.2635 22.8913V51.0652C64.2635 52.0376 63.4751 52.826 62.5026 52.826Z" fill="#455A64"/>
<path d="M69.5461 59.8695C68.5736 59.8695 67.7852 59.0811 67.7852 58.1086V22.8913C67.7852 21.9188 68.5736 21.1304 69.5461 21.1304C70.5186 21.1304 71.307 21.9188 71.307 22.8913V58.1086C71.307 59.0811 70.5186 59.8695 69.5461 59.8695Z" fill="#455A64"/>
<path d="M20.2418 59.8696C20.0107 59.8775 19.7811 59.8291 19.5727 59.7288C19.3525 59.6546 19.1574 59.5204 19.0093 59.3413C18.3285 58.6939 18.3014 57.6172 18.9489 56.9366C18.9685 56.9159 18.9887 56.8958 19.0093 56.8762C19.1572 56.6969 19.3525 56.5627 19.5727 56.4887C20.2265 56.2195 20.9782 56.3725 21.4745 56.8762C22.1553 57.5705 22.1444 58.6855 21.4499 59.3662C21.1268 59.6829 20.6943 59.8631 20.2418 59.8696Z" fill="#455A64"/>
<path d="M27.2853 59.8694C27.0541 59.8773 26.8245 59.8289 26.6162 59.7285C26.396 59.6544 26.2008 59.5202 26.0528 59.3411C25.372 58.6937 25.3449 57.617 25.9923 56.9364C26.012 56.9157 26.0321 56.8956 26.0528 56.8759C26.2007 56.6967 26.396 56.5625 26.6162 56.4885C27.2696 56.2151 28.0235 56.3688 28.5179 56.8759C28.697 57.024 28.8312 57.2191 28.9054 57.4394C29.0932 57.8656 29.0932 58.3513 28.9054 58.7777C28.8319 58.9982 28.6977 59.1937 28.5179 59.3411C28.2005 59.6838 27.7524 59.876 27.2853 59.8694Z" fill="#455A64"/>
<path d="M34.3287 59.8694C34.0976 59.8773 33.868 59.8289 33.6596 59.7285C33.4394 59.6544 33.2443 59.5202 33.0962 59.3411C32.4154 58.6937 32.3884 57.617 33.0358 56.9364C33.0554 56.9157 33.0756 56.8956 33.0962 56.8759C33.2441 56.6967 33.4394 56.5625 33.6596 56.4885C34.313 56.2151 35.067 56.3688 35.5614 56.8759C35.7405 57.024 35.8747 57.2191 35.9488 57.4394C36.1367 57.8656 36.1367 58.3513 35.9488 58.7777C35.8754 58.9982 35.7412 59.1937 35.5614 59.3411C35.2439 59.6838 34.7959 59.876 34.3287 59.8694Z" fill="#455A64"/>
<path d="M48.4159 59.8696C47.4435 59.8559 46.6662 59.0566 46.6799 58.0843C46.6863 57.632 46.8664 57.1993 47.1832 56.8762C47.868 56.2052 48.9638 56.2052 49.6484 56.8762C49.8275 57.0243 49.9617 57.2194 50.0358 57.4396C50.2237 57.8659 50.2237 58.3515 50.0358 58.7779C49.9623 58.9985 49.8281 59.1939 49.6484 59.3414C49.3311 59.6841 48.883 59.8762 48.4159 59.8696Z" fill="#455A64"/>
<path d="M55.4593 59.8696C54.487 59.8559 53.7096 59.0566 53.7233 58.0843C53.7296 57.632 53.9099 57.1993 54.2267 56.8762C54.9114 56.205 56.0072 56.205 56.6918 56.8762C57.3726 57.5706 57.3617 58.6855 56.6672 59.3663C56.3443 59.6829 55.9116 59.8632 55.4593 59.8696Z" fill="#455A64"/>
<path d="M62.5027 59.8696C62.0355 59.8762 61.5875 59.6842 61.27 59.3414C61.0903 59.194 60.9559 58.9987 60.8826 58.7779C60.6947 58.3517 60.6947 57.866 60.8826 57.4396C60.9566 57.2193 61.0908 57.0241 61.27 56.8762C61.9548 56.205 63.0506 56.205 63.7352 56.8762C64.416 57.5705 64.4051 58.6855 63.7106 59.3663C63.3877 59.6829 62.9552 59.8632 62.5027 59.8696Z" fill="#455A64"/>
<path d="M2.63299 24.6522C1.6605 24.6522 0.87207 23.8639 0.87207 22.8914V12.3262C0.87207 11.3537 1.6605 10.5653 2.63299 10.5653H13.1982C14.1707 10.5653 14.9591 11.3537 14.9591 12.3262C14.9591 13.2987 14.1707 14.0872 13.1982 14.0872H4.39375V22.8914C4.39375 23.8639 3.60549 24.6522 2.63299 24.6522Z" fill="#2196F3"/>
<path d="M13.1982 70.4348H2.63299C1.6605 70.4348 0.87207 69.6464 0.87207 68.6739V58.1087C0.87207 57.1362 1.6605 56.3478 2.63299 56.3478C3.60549 56.3478 4.39375 57.1362 4.39375 58.1087V66.913H13.198C14.1705 66.913 14.959 67.7014 14.959 68.6739C14.959 69.6464 14.1707 70.4348 13.1982 70.4348Z" fill="#2196F3"/>
<path d="M80.1113 24.6522C79.1388 24.6522 78.3504 23.8638 78.3504 22.8913V14.087H69.5461C68.5736 14.087 67.7852 13.2986 67.7852 12.3261C67.7852 11.3536 68.5736 10.5653 69.5461 10.5653H80.1113C81.0838 10.5653 81.8722 11.3537 81.8722 12.3262V22.8914C81.8722 23.8639 81.0838 24.6522 80.1113 24.6522Z" fill="#2196F3"/>
<path d="M80.1113 70.4348H69.5461C68.5736 70.4348 67.7852 69.6464 67.7852 68.6739C67.7852 67.7014 68.5736 66.913 69.5461 66.913H78.3504V58.1087C78.3504 57.1362 79.1388 56.3478 80.1113 56.3478C81.0838 56.3478 81.8722 57.1362 81.8722 58.1087V68.6739C81.8722 69.6464 81.0838 70.4348 80.1113 70.4348Z" fill="#2196F3"/>
<path d="M13.1984 59.8695C12.2259 59.8695 11.4375 59.0811 11.4375 58.1086V22.8913C11.4375 21.9188 12.2259 21.1304 13.1984 21.1304C14.1709 21.1304 14.9593 21.9188 14.9593 22.8913V58.1086C14.9592 59.0811 14.1709 59.8695 13.1984 59.8695Z" fill="#152536"/>
<path d="M20.2414 52.826C19.2689 52.826 18.4805 52.0376 18.4805 51.0651V22.8913C18.4805 21.9188 19.2689 21.1304 20.2414 21.1304C21.2139 21.1304 22.0023 21.9188 22.0023 22.8913V51.0652C22.0023 52.0376 21.2139 52.826 20.2414 52.826Z" fill="#152536"/>
<path d="M27.2849 52.826C26.3124 52.826 25.5239 52.0376 25.5239 51.0651V22.8913C25.5239 21.9188 26.3124 21.1304 27.2849 21.1304C28.2573 21.1304 29.0458 21.9188 29.0458 22.8913V51.0652C29.0458 52.0376 28.2573 52.826 27.2849 52.826Z" fill="#152536"/>
<path d="M34.3288 52.826C33.3563 52.826 32.5679 52.0376 32.5679 51.0651V22.8913C32.5679 21.9188 33.3563 21.1304 34.3288 21.1304C35.3013 21.1304 36.0897 21.9188 36.0897 22.8913V51.0652C36.0896 52.0376 35.3013 52.826 34.3288 52.826Z" fill="#152536"/>
<path d="M41.3718 59.8695C40.3993 59.8695 39.6108 59.0811 39.6108 58.1086V22.8913C39.6108 21.9188 40.3993 21.1304 41.3718 21.1304C42.3443 21.1304 43.1327 21.9188 43.1327 22.8913V58.1086C43.1327 59.0811 42.3443 59.8695 41.3718 59.8695Z" fill="#152536"/>
<path d="M48.4157 52.826C47.4432 52.826 46.6548 52.0376 46.6548 51.0651V22.8913C46.6548 21.9188 47.4432 21.1304 48.4157 21.1304C49.3882 21.1304 50.1766 21.9188 50.1766 22.8913V51.0652C50.1766 52.0376 49.3882 52.826 48.4157 52.826Z" fill="#152536"/>
<path d="M55.4592 52.826C54.4867 52.826 53.6982 52.0376 53.6982 51.0651V22.8913C53.6982 21.9188 54.4867 21.1304 55.4592 21.1304C56.4317 21.1304 57.2201 21.9188 57.2201 22.8913V51.0652C57.2199 52.0376 56.4317 52.826 55.4592 52.826Z" fill="#152536"/>
<path d="M62.5026 52.826C61.5301 52.826 60.7417 52.0376 60.7417 51.0651V22.8913C60.7417 21.9188 61.5301 21.1304 62.5026 21.1304C63.4751 21.1304 64.2635 21.9188 64.2635 22.8913V51.0652C64.2635 52.0376 63.4751 52.826 62.5026 52.826Z" fill="#152536"/>
<path d="M69.5461 59.8695C68.5736 59.8695 67.7852 59.0811 67.7852 58.1086V22.8913C67.7852 21.9188 68.5736 21.1304 69.5461 21.1304C70.5186 21.1304 71.307 21.9188 71.307 22.8913V58.1086C71.307 59.0811 70.5186 59.8695 69.5461 59.8695Z" fill="#152536"/>
<path d="M20.2417 59.8698C20.0106 59.8769 19.7811 59.8287 19.5726 59.729C19.3525 59.6544 19.1576 59.5203 19.0092 59.3415C18.3284 58.6913 18.3036 57.6123 18.9539 56.9317C18.9719 56.9128 18.9904 56.8944 19.0092 56.8764C19.1574 56.6976 19.3525 56.5634 19.5726 56.4889C20.0013 56.3128 20.4822 56.3128 20.9109 56.4889C21.1315 56.5625 21.3268 56.6968 21.4743 56.8764C22.1551 57.5707 22.1442 58.6857 21.4497 59.3665C21.1267 59.6831 20.6942 59.8634 20.2417 59.8698Z" fill="#152536"/>
<path d="M27.285 59.8695C26.3125 59.8577 25.5338 59.0599 25.5455 58.0874C25.551 57.6338 25.7313 57.1998 26.0489 56.8759C26.5423 56.3669 27.2974 56.2131 27.9506 56.4884C28.1712 56.5621 28.3665 56.6963 28.514 56.8759C29.1948 57.5702 29.1839 58.6852 28.4896 59.366C28.1674 59.6819 27.7362 59.8622 27.285 59.8695Z" fill="#152536"/>
<path d="M34.3285 59.8695C33.356 59.8578 32.5773 59.06 32.589 58.0875C32.5944 57.6338 32.7747 57.1998 33.0923 56.8759C33.2406 56.6971 33.4357 56.5629 33.6558 56.4885C34.3095 56.2192 35.0613 56.3723 35.5575 56.8759C36.2383 57.5703 36.2274 58.6852 35.5329 59.366C35.2098 59.6828 34.7773 59.8631 34.3248 59.8693H34.3285V59.8695Z" fill="#152536"/>
<path d="M48.4155 59.8698C48.1847 59.8734 47.9561 59.8254 47.7464 59.729C47.5264 59.6543 47.3314 59.5203 47.183 59.3415C46.5022 58.6913 46.4775 57.6123 47.1277 56.9317C47.1457 56.9128 47.1642 56.8944 47.183 56.8764C47.3313 56.6976 47.5264 56.5634 47.7464 56.4889C48.1751 56.3128 48.656 56.3128 49.0847 56.4889C49.3053 56.5625 49.5006 56.6968 49.6482 56.8764C50.329 57.5707 50.3181 58.6857 49.6236 59.3664C49.3005 59.6831 48.8678 59.8633 48.4155 59.8698Z" fill="#152536"/>
<path d="M55.459 59.8698C55.2282 59.8734 54.9995 59.8254 54.7899 59.729C54.5698 59.6543 54.3749 59.5203 54.2265 59.3415C53.5457 58.6913 53.5209 57.6123 54.1712 56.9316C54.1892 56.9128 54.2076 56.8943 54.2265 56.8763C54.9112 56.2051 56.007 56.2051 56.6916 56.8763C57.3724 57.521 57.4016 58.5953 56.7572 59.276C56.7359 59.2984 56.7141 59.3202 56.6916 59.3415C56.5439 59.521 56.3486 59.6552 56.1282 59.729C55.9186 59.8257 55.6897 59.8739 55.459 59.8698Z" fill="#152536"/>
<path d="M62.5025 59.8696C62.2717 59.8732 62.0431 59.8252 61.8334 59.7288C61.6134 59.6542 61.4184 59.5201 61.27 59.3413C60.9276 59.0237 60.7356 58.5758 60.7417 58.1087C60.733 57.8774 60.7813 57.6476 60.8825 57.4396C60.9553 57.2195 61.0882 57.0244 61.2664 56.8762C61.4146 56.6974 61.6097 56.5632 61.8298 56.4887C62.4835 56.2195 63.2353 56.3725 63.7315 56.8762C63.9095 57.0252 64.0435 57.22 64.119 57.4396C64.2202 57.6478 64.2685 57.8775 64.2598 58.1087C64.2339 59.0703 63.4605 59.8437 62.4989 59.8696H62.5025Z" fill="#152536"/>
<path d="M2.63299 24.6522C1.6605 24.6522 0.87207 23.8639 0.87207 22.8914V12.3262C0.87207 11.3537 1.6605 10.5653 2.63299 10.5653H13.1982C14.1707 10.5653 14.9591 11.3537 14.9591 12.3262C14.9591 13.2987 14.1707 14.0872 13.1982 14.0872H4.39375V22.8914C4.39375 23.8639 3.60549 24.6522 2.63299 24.6522Z" fill="#152536"/>
<path d="M13.1982 70.435H2.63299C1.6605 70.435 0.87207 69.6465 0.87207 68.674V58.1088C0.87207 57.1363 1.6605 56.3479 2.63299 56.3479C3.60549 56.3479 4.39375 57.1363 4.39375 58.1088V66.9131H13.198C14.1705 66.9131 14.959 67.7015 14.959 68.674C14.959 69.6465 14.1707 70.435 13.1982 70.435Z" fill="#152536"/>
<path d="M80.1113 24.6522C79.1388 24.6522 78.3504 23.8638 78.3504 22.8913V14.087H69.5461C68.5736 14.087 67.7852 13.2986 67.7852 12.3261C67.7852 11.3536 68.5736 10.5653 69.5461 10.5653H80.1113C81.0838 10.5653 81.8722 11.3537 81.8722 12.3262V22.8914C81.8722 23.8639 81.0838 24.6522 80.1113 24.6522Z" fill="#152536"/>
<path d="M80.1113 70.435H69.5461C68.5736 70.435 67.7852 69.6465 67.7852 68.674C67.7852 67.7015 68.5736 66.9131 69.5461 66.9131H78.3504V58.1088C78.3504 57.1363 79.1388 56.3479 80.1113 56.3479C81.0838 56.3479 81.8722 57.1363 81.8722 58.1088V68.674C81.8722 69.6465 81.0838 70.435 80.1113 70.435Z" fill="#152536"/>
</g>
<defs>
<clipPath id="clip0">
<rect width="81" height="81" fill="white" transform="translate(0.87207)"/>
</clipPath>
</defs>
</svg>
