<svg width="82" height="81" viewBox="0 0 82 81" fill="none" xmlns="http://www.w3.org/2000/svg">
<path d="M9.73145 65.8125H73.0127C74.6904 65.8106 76.2989 65.1433 77.4853 63.957C78.6716 62.7706 79.3389 61.1621 79.3408 59.4844V21.5156C79.3389 19.8379 78.6716 18.2294 77.4853 17.043C76.2989 15.8567 74.6904 15.1894 73.0127 15.1875H9.73145C8.0537 15.1894 6.44521 15.8567 5.25887 17.043C4.07252 18.2294 3.4052 19.8379 3.40332 21.5156V59.4844C3.4052 61.1621 4.07252 62.7706 5.25887 63.957C6.44521 65.1433 8.0537 65.8106 9.73145 65.8125ZM5.93457 21.5156C5.93574 20.509 6.33615 19.5439 7.04794 18.8321C7.75974 18.1203 8.72481 17.7199 9.73145 17.7188H73.0127C74.0193 17.7199 74.9844 18.1203 75.6962 18.8321C76.408 19.5439 76.8084 20.509 76.8096 21.5156V59.4844C76.8084 60.491 76.408 61.4561 75.6962 62.1679C74.9844 62.8797 74.0193 63.2801 73.0127 63.2812H9.73145C8.72481 63.2801 7.75974 62.8797 7.04794 62.1679C6.33615 61.4561 5.93574 60.491 5.93457 59.4844V21.5156Z" fill="#152536"/>
<path d="M14.7939 35.4375H19.8564C20.8631 35.4363 21.8281 35.0359 22.5399 34.3241C23.2517 33.6123 23.6521 32.6473 23.6533 31.6406V26.5781C23.6521 25.5715 23.2517 24.6064 22.5399 23.8946C21.8281 23.1828 20.8631 22.7824 19.8564 22.7812H14.7939C13.7873 22.7824 12.8222 23.1828 12.1104 23.8946C11.3986 24.6064 10.9982 25.5715 10.9971 26.5781V31.6406C10.9982 32.6473 11.3986 33.6123 12.1104 34.3241C12.8222 35.0359 13.7873 35.4363 14.7939 35.4375ZM14.7939 25.3125H19.8564C20.192 25.3129 20.5137 25.4463 20.751 25.6836C20.9882 25.9209 21.1217 26.2426 21.1221 26.5781V27.8438H19.8564C19.5208 27.8438 19.1989 27.9771 18.9615 28.2144C18.7242 28.4518 18.5908 28.7737 18.5908 29.1094C18.5908 29.445 18.7242 29.767 18.9615 30.0043C19.1989 30.2417 19.5208 30.375 19.8564 30.375H21.1221V31.6406C21.1217 31.9762 20.9882 32.2979 20.751 32.5351C20.5137 32.7724 20.192 32.9059 19.8564 32.9062H14.7939C14.4584 32.9059 14.1367 32.7724 13.8994 32.5351C13.6622 32.2979 13.5287 31.9762 13.5283 31.6406V30.375H14.7939C15.1296 30.375 15.4515 30.2417 15.6889 30.0043C15.9262 29.767 16.0596 29.445 16.0596 29.1094C16.0596 28.7737 15.9262 28.4518 15.6889 28.2144C15.4515 27.9771 15.1296 27.8438 14.7939 27.8438H13.5283V26.5781C13.5287 26.2426 13.6622 25.9209 13.8994 25.6836C14.1367 25.4463 14.4584 25.3129 14.7939 25.3125Z" fill="#152536"/>
<path d="M12.2627 53.1562H31.2471C31.5827 53.1562 31.9047 53.0229 32.142 52.7856C32.3794 52.5482 32.5127 52.2263 32.5127 51.8906C32.5127 51.555 32.3794 51.233 32.142 50.9957C31.9047 50.7583 31.5827 50.625 31.2471 50.625H12.2627C11.927 50.625 11.6051 50.7583 11.3678 50.9957C11.1304 51.233 10.9971 51.555 10.9971 51.8906C10.9971 52.2263 11.1304 52.5482 11.3678 52.7856C11.6051 53.0229 11.927 53.1562 12.2627 53.1562Z" fill="#152536"/>
<path d="M12.2627 58.2187L37.5752 58.2197C37.9109 58.2197 38.2328 58.0864 38.4701 57.849C38.7075 57.6117 38.8408 57.2897 38.8408 56.9541C38.8408 56.6184 38.7075 56.2965 38.4701 56.0591C38.2328 55.8218 37.9109 55.6885 37.5752 55.6885L12.2627 55.6875C11.927 55.6875 11.6051 55.8208 11.3678 56.0582C11.1304 56.2955 10.9971 56.6175 10.9971 56.9531C10.9971 57.2888 11.1304 57.6107 11.3678 57.8481C11.6051 58.0854 11.927 58.2187 12.2627 58.2187Z" fill="#152536"/>
<path d="M61.6223 60.75C62.7331 60.7509 63.8243 60.4574 64.7848 59.8995C65.7467 60.456 66.8382 60.7493 67.9495 60.75C69.0607 60.7507 70.1526 60.4588 71.1152 59.9035C72.0779 59.3483 72.8773 58.5494 73.4332 57.5871C73.989 56.6248 74.2816 55.5331 74.2816 54.4219C74.2816 53.3106 73.989 52.2189 73.4332 51.2566C72.8773 50.2944 72.0779 49.4954 71.1152 48.9402C70.1526 48.385 69.0607 48.093 67.9495 48.0938C66.8382 48.0945 65.7467 48.3878 64.7848 48.9443C63.9443 48.4589 63.0035 48.1734 62.035 48.1099C61.0665 48.0463 60.0964 48.2064 59.1997 48.5778C58.303 48.9492 57.5038 49.522 56.8639 50.2517C56.224 50.9814 55.7605 51.8485 55.5094 52.786C55.2583 53.7235 55.2262 54.7063 55.4157 55.6581C55.6051 56.61 56.011 57.5056 56.602 58.2755C57.1929 59.0454 57.9531 59.669 58.8236 60.0981C59.6942 60.5272 60.6518 60.7502 61.6223 60.75ZM71.7473 54.4219C71.7476 55.0184 71.6072 55.6066 71.3377 56.1387C71.0681 56.6708 70.6769 57.1319 70.1958 57.4846C69.7146 57.8372 69.1572 58.0715 68.5686 58.1684C67.98 58.2653 67.3768 58.222 66.8081 58.0422C67.5516 56.9814 67.9504 55.7174 67.9504 54.422C67.9504 53.1265 67.5516 51.8625 66.8081 50.8017C67.3768 50.6218 67.98 50.5785 68.5686 50.6753C69.1572 50.7721 69.7147 51.0064 70.1959 51.359C70.677 51.7117 71.0683 52.1728 71.3378 52.7049C71.6074 53.2371 71.7477 53.8253 71.7473 54.4219ZM61.6223 50.625C62.3733 50.625 63.1074 50.8477 63.7317 51.2649C64.3561 51.6821 64.8428 52.2751 65.1302 52.9689C65.4175 53.6627 65.4927 54.4261 65.3462 55.1626C65.1997 55.8991 64.8381 56.5757 64.3071 57.1067C63.7761 57.6377 63.0996 57.9993 62.363 58.1458C61.6265 58.2923 60.8631 58.2171 60.1693 57.9297C59.4755 57.6424 58.8825 57.1557 58.4653 56.5313C58.0481 55.9069 57.8254 55.1728 57.8254 54.4219C57.8266 53.4152 58.227 52.4502 58.9388 51.7384C59.6506 51.0266 60.6157 50.6262 61.6223 50.625Z" fill="#152536"/>
<path d="M68.6497 35.304C68.7983 35.3785 68.9602 35.423 69.126 35.4348C69.2918 35.4467 69.4583 35.4257 69.6161 35.3732C69.7738 35.3206 69.9196 35.2375 70.0451 35.1285C70.1707 35.0195 70.2735 34.8869 70.3477 34.7381C70.405 34.6238 71.747 31.9076 71.747 29.1096C71.747 26.3116 70.405 23.5954 70.3477 23.481C70.1963 23.1834 69.9333 22.9576 69.6162 22.853C69.299 22.7484 68.9534 22.7734 68.6546 22.9225C68.3557 23.0716 68.128 23.3328 68.0209 23.6491C67.9138 23.9654 67.9361 24.3113 68.0829 24.6112C68.0943 24.6342 69.2158 26.9201 69.2158 29.1096C69.2158 31.2991 68.0943 33.585 68.0838 33.606C67.9337 33.9063 67.909 34.2538 68.0151 34.5722C68.1212 34.8907 68.3495 35.1539 68.6497 35.304Z" fill="#152536"/>
<path d="M58.1957 32.5355C58.3132 32.6531 58.4527 32.7463 58.6063 32.8099C58.7598 32.8735 58.9244 32.9062 59.0906 32.9062C59.2568 32.9062 59.4214 32.8735 59.575 32.8099C59.7285 32.7463 59.8681 32.6531 59.9856 32.5355C60.1531 32.3683 61.6219 30.8496 61.6219 29.1093C61.6219 27.3691 60.1531 25.8503 59.9856 25.6831C59.7487 25.4453 59.427 25.3113 59.0914 25.3107C58.7557 25.31 58.4335 25.4427 58.1957 25.6796C57.9579 25.9165 57.8239 26.2382 57.8232 26.5739C57.8226 26.9095 57.9553 27.2317 58.1922 27.4695C58.5545 27.8377 59.0906 28.6135 59.0906 29.1093C59.0906 29.6051 58.5545 30.381 58.1957 30.7456C58.0782 30.8631 57.9849 31.0027 57.9213 31.1562C57.8577 31.3098 57.825 31.4744 57.825 31.6406C57.825 31.8068 57.8577 31.9714 57.9213 32.1249C57.9849 32.2785 58.0782 32.418 58.1957 32.5355Z" fill="#152536"/>
<path d="M12.2627 43.0312H19.8564C20.1921 43.0312 20.514 42.8979 20.7514 42.6606C20.9887 42.4232 21.1221 42.1013 21.1221 41.7656C21.1221 41.43 20.9887 41.108 20.7514 40.8707C20.514 40.6333 20.1921 40.5 19.8564 40.5H12.2627C11.927 40.5 11.6051 40.6333 11.3678 40.8707C11.1304 41.108 10.9971 41.43 10.9971 41.7656C10.9971 42.1013 11.1304 42.4232 11.3678 42.6606C11.6051 42.8979 11.927 43.0312 12.2627 43.0312Z" fill="#152536"/>
<path d="M27.4502 43.0312H35.0439C35.3796 43.0312 35.7015 42.8979 35.9389 42.6606C36.1762 42.4232 36.3096 42.1013 36.3096 41.7656C36.3096 41.43 36.1762 41.108 35.9389 40.8707C35.7015 40.6333 35.3796 40.5 35.0439 40.5H27.4502C27.1145 40.5 26.7926 40.6333 26.5553 40.8707C26.3179 41.108 26.1846 41.43 26.1846 41.7656C26.1846 42.1013 26.3179 42.4232 26.5553 42.6606C26.7926 42.8979 27.1145 43.0312 27.4502 43.0312Z" fill="#152536"/>
<path d="M42.6377 43.0312H50.2314C50.5671 43.0312 50.889 42.8979 51.1264 42.6606C51.3637 42.4232 51.4971 42.1013 51.4971 41.7656C51.4971 41.43 51.3637 41.108 51.1264 40.8707C50.889 40.6333 50.5671 40.5 50.2314 40.5H42.6377C42.302 40.5 41.9801 40.6333 41.7428 40.8707C41.5054 41.108 41.3721 41.43 41.3721 41.7656C41.3721 42.1013 41.5054 42.4232 41.7428 42.6606C41.9801 42.8979 42.302 43.0312 42.6377 43.0312Z" fill="#152536"/>
<path d="M57.8252 43.0312H65.4189C65.7546 43.0312 66.0765 42.8979 66.3139 42.6606C66.5512 42.4232 66.6846 42.1013 66.6846 41.7656C66.6846 41.43 66.5512 41.108 66.3139 40.8707C66.0765 40.6333 65.7546 40.5 65.4189 40.5H57.8252C57.4895 40.5 57.1676 40.6333 56.9303 40.8707C56.6929 41.108 56.5596 41.43 56.5596 41.7656C56.5596 42.1013 56.6929 42.4232 56.9303 42.6606C57.1676 42.8979 57.4895 43.0312 57.8252 43.0312Z" fill="#152536"/>
<path d="M65.0483 24.4173C64.811 24.18 64.489 24.0466 64.1534 24.0466C63.8177 24.0466 63.4958 24.18 63.2584 24.4173C63.021 24.6547 62.8877 24.9766 62.8877 25.3123C62.8877 25.648 63.021 25.9699 63.2584 26.2072C63.2673 26.2163 64.1534 27.1881 64.1534 29.1092C64.1534 31.0302 63.2813 31.9859 63.2443 32.0256L63.2584 32.0111C63.021 32.2484 62.8877 32.5704 62.8877 32.906C62.8877 33.2417 63.021 33.5636 63.2584 33.801C63.4958 34.0384 63.8177 34.1717 64.1534 34.1717C64.489 34.1717 64.811 34.0384 65.0483 33.801C65.2158 33.6338 66.6846 32.0788 66.6846 29.1092C66.6846 26.1395 65.2158 24.5846 65.0483 24.4173Z" fill="#152536"/>
</svg>
