<svg width="64" height="64" viewBox="0 0 64 64" fill="none" xmlns="http://www.w3.org/2000/svg">
<path d="M61.0909 8.31079H32H2.90913C1.3025 8.31079 0 9.61329 0 11.2199V52.7782C0 54.3848 1.3025 55.6873 2.90913 55.6873H32H61.0909C62.6975 55.6873 64 54.3848 64 52.7782V11.2199C64 9.61329 62.6975 8.31079 61.0909 8.31079Z" fill="#5286F9"/>
<path d="M34.222 23.7217C34.8614 24.4542 35.4182 25.2604 35.8765 26.1269C36.8049 27.882 37.3334 29.8802 37.3334 32.0002C37.3334 34.1202 36.8049 36.118 35.8765 37.8734C35.4182 38.7399 34.8614 39.5459 34.222 40.2784C33.564 41.0323 32.8182 41.7068 32 42.287C34.0567 43.745 36.5654 44.6061 39.2727 44.6061C46.2237 44.6061 51.8789 38.951 51.8789 32.0002C51.8789 25.0493 46.2237 19.394 39.2727 19.394C36.5654 19.394 34.0567 20.2548 32 21.7132C32.818 22.2934 33.5637 22.968 34.222 23.7217Z" fill="#FFB655"/>
<path d="M35.8773 26.1267C35.4191 25.2599 34.8622 24.4539 34.2228 23.7214C33.5644 22.9675 32.8189 22.2933 32.0008 21.7132C29.9443 20.2548 27.4354 19.394 24.7281 19.394C17.7771 19.394 12.1221 25.0492 12.1221 32C12.1221 38.9509 17.7772 44.6061 24.7281 44.6061C27.4354 44.6061 29.9443 43.7452 32.0008 42.2869C32.8191 41.7068 33.5646 41.0322 34.2228 40.2785C34.8622 39.546 35.4191 38.7398 35.8773 37.8735C36.8057 36.1182 37.3342 34.12 37.3342 32.0003C37.3342 29.8798 36.8057 27.8818 35.8773 26.1267Z" fill="#D8143A"/>
<path d="M24.7272 44.6054C17.7762 44.6054 12.1213 38.9503 12.1213 31.9994C12.1213 25.0485 17.7764 19.3934 24.7272 19.3934C27.4346 19.3934 29.9433 20.2542 32 21.7125V8.31079H2.90913C1.3025 8.31079 0 9.61329 0 11.2199V52.7782C0 54.3848 1.3025 55.6873 2.90913 55.6873H32V42.286C29.9433 43.7443 27.4346 44.6054 24.7272 44.6054Z" fill="#3D6DEB"/>
</svg>
