<?xml version="1.0" encoding="UTF-8" standalone="no"?>
<svg
   xmlns:svg="http://www.w3.org/2000/svg"
   xmlns="http://www.w3.org/2000/svg"
   viewBox="10 0 150 45"
   width="130"
   height="50"
>
  <path
     class="logo"
     d="m 50.788645,32.3 h 5.8 V 15.4 h -5.8 z m 7.8,-28.4 h -3.9 v 3.9 h 3.9 z m -21.9,1.9 h -5.6 v 4.9 h 5.2 c 3.3,0 5.2,1.6 5.2,4.6 0,3 -1.9,4.7 -5.2,4.7 h -5.2 v -9.2 h -5.8 v 21.5 h 5.8 v -7.4 h 5.5 c 6.7,0 10.6,-3.6 10.6,-9.8 0,-5.8 -3.8,-9.3 -10.5,-9.3 z m 25.8,-5.8 h -11.7 v 11.7 h 11.7 z m -1.9,9.7 h -7.8 V 1.9 h 7.8 z m 34,-3.9 h -5.3 v 4.9 h 5 c 3.3,0 5.2,1.6 5.2,4.6 0,3 -1.9,4.7 -5.2,4.7 h -5 v -9.2 h -5.8 v 21.5 h 5.8 v -7.4 h 5.3 c 6.699995,0 10.599995,-3.6 10.599995,-9.8 0,-5.8 -3.9,-9.3 -10.599995,-9.3 z m 48.699995,6.2 -5,12.6 -5,-12.6 h -6 l 8,20.3 -3.1,7.7 h 6.1 l 11,-28 z m -26,-0.1 c -3.5,0 -6.2,0.8 -9.2,2.3 l 1.8,4 c 2.1,-1.2 4.2,-1.8 6.1,-1.8 2.8,0 4.2,1.2 4.2,3.4 v 0.4 h -5.6 c -5,0 -7.7,2.3 -7.7,6.1 0,3.7 2.6,6.3 7,6.3 2.8,0 4.8,-1 6.4,-2.7 v 2.2 h 5.7 V 18.9 c -0.2,-4.3 -3.3,-7 -8.7,-7 z m 3.4,13.6 c -0.6,1.7 -2.3,3.1 -4.7,3.1 -2,0 -3.2,-1 -3.2,-2.6 0,-1.6 1.1,-2.3 3.3,-2.3 h 4.6 z m -49.299995,2.4 c -2.8,0 -4.8,-2.2 -4.8,-5.5 0,-3.2 2,-5.4 4.8,-5.4 2,0 3.5,0.8 4.6,2.2 l 3.9,-2.8 c -1.8,-2.7 -4.9,-4.3 -8.8,-4.3 -6.1,-0.1 -10.3,4.1 -10.3,10.3 0,6.2 4.2,10.3 10.3,10.3 4.2,0 7.3,-1.7 9,-4.5 l -4,-2.7 c -1,1.6 -2.6,2.4 -4.7,2.4 z"
     style="fill:#21c25e;fill-opacity:1" />
</svg>
